# xmcd
#
# Track frame offsets:
#	150
#	11688
#	23460
#	38387
#	50516
#	62910
#	72075
#	83686
#	95003
#	108092
#	119149
#	130677
#	142290
#	155575
#	168515
#	183317
#	194779
#	207212
#	220349
#	232530
#	244151
#	261090
#	275276
#	289915
#	302775
#	316938
#	328528
#
# Disc length: 4541 seconds
# Revision: 0
# Processed by: cddbd v1.5.2PL0 Copyright (c) Steve Scherf et al.
# Submitted via: dBpowerAMP V12.0
#
DISCID=8511bb1b
DTITLE=ZZ Hill - That's it - The Complete Kent Recordings 1964-1968 - The Kent Singles - Disc 1
DYEAR=2018
DGENRE=Soul
TTITLE0=You Don't Love me
TTITLE1=If I Could do it All Over
TTITLE2=Someone to Love me
TTITLE3=Have Mercy Someone
TTITLE4=Hey Little Girl
TTITLE5=Oh Darlin'
TTITLE6=What More
TTITLE7=That's it
TTITLE8=Happiness is All I Need
TTITLE9=Everybody Has to Cry
TTITLE10=No More Doggin'
TTITLE11=The Kind of Love I Want
TTITLE12=I Found Love
TTITLE13=You Can't Hide a Heartache
TTITLE14=Gimme Gimme
TTITLE15=Greatest Love
TTITLE16=Where She Att
TTITLE17=Baby I'm Sorry
TTITLE18=Everybody Needs Somebody
TTITLE19=You Just Cheat And Lie
TTITLE20=What am I Living For
TTITLE21=You're Gonna Need my Lovin'
TTITLE22=Nothing Can Change The Love I Have For You
TTITLE23=Steal Away
TTITLE24=You Got What I Need
TTITLE25=Don't Make Promises (You Can't Keep)
TTITLE26=Set Your Sights Higher
EXTD=
EXTT0=
EXTT1=
EXTT2=
EXTT3=
EXTT4=
EXTT5=
EXTT6=
EXTT7=
EXTT8=
EXTT9=
EXTT10=
EXTT11=
EXTT12=
EXTT13=
EXTT14=
EXTT15=
EXTT16=
EXTT17=
EXTT18=
EXTT19=
EXTT20=
EXTT21=
EXTT22=
EXTT23=
EXTT24=
EXTT25=
EXTT26=
PLAYORDER=
